<?xml version="1.0" encoding="UTF-8" standalone="no"?>
<!-- Created with Inkscape (http://www.inkscape.org/) -->

<svg
   version="1.1"
   id="svg1"
   width="2829.3333"
   height="2829.3333"
   viewBox="0 0 2829.3333 2829.3333"
   sodipodi:docname="e66931a1-8e60-4995-b35b-0208e75d8194.eps"
   xmlns:inkscape="http://www.inkscape.org/namespaces/inkscape"
   xmlns:sodipodi="http://sodipodi.sourceforge.net/DTD/sodipodi-0.dtd"
   xmlns="http://www.w3.org/2000/svg"
   xmlns:svg="http://www.w3.org/2000/svg">
  <defs
     id="defs1" />
  <sodipodi:namedview
     id="namedview1"
     pagecolor="#ffffff"
     bordercolor="#000000"
     borderopacity="0.25"
     inkscape:showpageshadow="2"
     inkscape:pageopacity="0.0"
     inkscape:pagecheckerboard="0"
     inkscape:deskcolor="#d1d1d1">
    <inkscape:page
       x="0"
       y="0"
       inkscape:label="1"
       id="page1"
       width="2829.3333"
       height="2829.3333"
       margin="0"
       bleed="0" />
  </sodipodi:namedview>
  <g
     id="g1"
     inkscape:groupmode="layer"
     inkscape:label="1">
    <g
       id="group-R5">
      <path
         id="path2"
         d="m 9475.93,17535.8 c -405.98,314.2 -904.07,504.5 -1404.36,470.5 -595.51,-40.5 -1174.66,-433.8 -1369.38,-1017.6 -199.89,-599.3 26.91,-1288.6 436.04,-1766.3 397.73,-464.4 942.61,-761.7 1493.56,-1005.4 459.5,9.9 915.81,108.9 1325.63,301.5 511.18,240.2 941.48,631.1 1194.78,1139.2 317.8,637.6 269,1398 -129.3,1991.1 -171.8,255.8 -413.7,450.6 -693.8,571 -331.87,-146.3 -624.35,-389.3 -853.17,-684"
         style="fill:#ec2c54;fill-opacity:1;fill-rule:nonzero;stroke:none"
         transform="matrix(0.13333333,0,0,-0.13333333,0,2829.3333)" />
      <path
         id="path3"
         d="m 11022.9,17648.8 c 398.3,-593.1 447.1,-1353.5 129.3,-1991.1 -253.3,-508.1 -683.6,-899 -1194.78,-1139.2 -409.82,-192.6 -866.13,-291.6 -1325.63,-301.5 15.79,-6.9 31.56,-14 47.35,-20.9 423.02,-184.7 881.57,-355.6 1291.65,-567.3 344.41,307.2 745.81,587.1 1109.41,871.4 487.4,381.1 959.3,813.4 1236.4,1378.1 277.1,564.6 324.9,1288.7 -18.1,1819.2 -334.1,516.8 -993.1,753.3 -1579.9,644.1 -134.6,-25.1 -264.7,-66.8 -389.5,-121.8 280.1,-120.4 522,-315.2 693.8,-571"
         style="fill:#d1214b;fill-opacity:1;fill-rule:nonzero;stroke:none"
         transform="matrix(0.13333333,0,0,-0.13333333,0,2829.3333)" />
      <path
         id="path4"
         d="m 14588.7,12119.5 c 565.9,38.6 1111,247.6 1533.2,630.9 529.8,480.9 761.2,1210.3 604.5,1910.5 -66.6,298 -218.8,565.2 -432.5,778.6 -366.2,-13.9 -731.1,-134.8 -1054.6,-328.4 -264.4,440.1 -659.5,798.1 -1138,947.9 -569.6,178.3 -1252,21.9 -1645.3,-451.4 -403.7,-486 -442.4,-1210.6 -234.5,-1804.2 204.2,-582.8 610,-1061.2 1039.7,-1491.4 427,-152.4 881.8,-222.8 1327.5,-192.5"
         style="fill:#77d3f6;fill-opacity:1;fill-rule:nonzero;stroke:none"
         transform="matrix(0.13333333,0,0,-0.13333333,0,2829.3333)" />
      <path
         id="path5"
         d="m 9814.97,9664 c 551.93,165.4 1045.03,495.2 1377.13,969.8 416.7,595.6 481.9,1370.3 169.2,2028.8 -126.4,266.1 -322.6,487.8 -564.4,649.4 -369.9,-89.7 -714.2,-293.8 -997.52,-564.4 -355.19,370.6 -819.76,632.3 -1319.6,672.4 -594.97,47.8 -1225.8,-255.8 -1504.49,-804.4 -286.11,-563.3 -163.45,-1278.5 170.74,-1811.3 334.19,-532.9 848.42,-913.9 1372.68,-1242.4 8.46,-5.3 17.15,-10.6 25.64,-15.9 428.98,-40.8 863.72,-4 1270.62,118"
         style="fill:#6cc62e;fill-opacity:1;fill-rule:nonzero;stroke:none"
         transform="matrix(0.13333333,0,0,-0.13333333,0,2829.3333)" />
      <path
         id="path6"
         d="m 12364.5,10689.2 c 357.3,517.6 511.4,1226.6 250.4,1802 -254.2,560.4 -871.1,891.5 -1467.6,870 -118.6,-4.3 -235.7,-21.4 -350.4,-49.2 241.8,-161.6 438,-383.3 564.4,-649.4 312.7,-658.5 247.5,-1433.2 -169.2,-2028.8 -332.1,-474.6 -825.2,-804.4 -1377.13,-969.8 -406.9,-122 -841.64,-158.8 -1270.62,-118 384.21,-239.4 801.92,-471.7 1168.21,-735.7 385.94,253.1 824.24,470.6 1225.84,698.2 538.2,305.1 1068.7,663.1 1426.1,1180.7"
         style="fill:#65b431;fill-opacity:1;fill-rule:nonzero;stroke:none"
         transform="matrix(0.13333333,0,0,-0.13333333,0,2829.3333)" />
      <path
         id="path7"
         d="m 16244,11627.1 c -107.2,25.6 -214.9,-40.6 -240.5,-147.8 -177.7,-745 -483.4,-1462.5 -788.9,-2193 -305,-730.6 -609.8,-1474.4 -774,-2275.3 -94.8,-463 -135.7,-926.9 -135.7,-1388.5 0.3,-1207.2 278.4,-2397.8 606.8,-3531.5 30.7,-105.9 141.3,-166.8 247.2,-136.1 105.9,30.7 166.8,141.4 136.1,247.2 v 0 c -324.8,1119.6 -591.2,2275.1 -591,3420.4 0,438.1 38.8,874.7 127.6,1308.4 153.9,752.7 446.7,1472.9 751.3,2201.5 304.1,728.6 620.1,1465.3 808.8,2254.2 25.6,107.2 -40.5,214.8 -147.7,240.5"
         style="fill:#f9a897;fill-opacity:1;fill-rule:nonzero;stroke:none"
         transform="matrix(0.13333333,0,0,-0.13333333,0,2829.3333)" />
      <path
         id="path8"
         d="m 17928.2,14237.7 c -123.9,602.8 -652.1,1062.3 -1238.6,1173.4 -130.8,24.8 -263.3,33.4 -395.7,28.4 213.7,-213.4 365.9,-480.6 432.5,-778.6 156.7,-700.2 -74.7,-1429.6 -604.5,-1910.5 -422.2,-383.3 -967.3,-592.3 -1533.2,-630.9 -445.7,-30.3 -900.5,40.1 -1327.5,192.5 8,-8 15.9,-16.1 23.9,-24.1 327.2,-325.5 692.5,-651.1 997.8,-997.1 432.4,161.3 908,276.4 1350,409.4 592.4,178.4 1189.1,410 1652.1,835.7 463.1,425.6 770.3,1083 643.2,1701.8"
         style="fill:#54c8ea;fill-opacity:1;fill-rule:nonzero;stroke:none"
         transform="matrix(0.13333333,0,0,-0.13333333,0,2829.3333)" />
      <path
         id="path9"
         d="M 10226.1,5993.7 C 9873.72,5781 9505.21,5595 9124.81,5438.2 c -764.83,-315.3 -1563.57,-490 -2393,-581.9 -268.05,-29.8 -584.64,-70.6 -890.19,-70.5 -226.94,-0.2 -446.41,22.9 -630.47,83.1 -92.16,30 -175.46,68.8 -248.74,117.8 -73.33,49 -136.94,107.8 -191.55,180.9 -91.23,122 -147.41,273.4 -153.28,420.8 l -0.01,0.4 c -0.21,4.6 -0.32,9.5 -0.32,14.6 0.01,34.4 4.79,70.1 13.79,109.8 13.3,59.5 36.92,127.2 61.23,206 23.95,78.6 48.64,169.2 54.08,273.8 l 0.02,0.4 c 0.5,10.3 0.78,20.8 0.78,31.4 0.28,82.1 -17.49,158.7 -44.62,222.4 -20.21,48 -44.8,89 -68.92,124.4 -36.43,53.2 -71.47,94.8 -98.6,131.6 -27.4,36.9 -46.93,67.9 -59.96,99.2 h -0.03 c -4.68,11.9 -5.65,18 -5.91,30.4 -0.36,16.8 5.07,46.7 16.48,92.7 10.6,45.6 27.16,107.4 27.51,186.2 0.26,57.3 -10.46,123.1 -37.53,186.9 -35.87,84.4 -75.15,146.5 -97.01,190.4 -11.2,21.9 -18.33,38.9 -22.19,51.5 -3.86,12.8 -5,20.9 -5.09,30.2 0.14,10.8 1.56,24.9 11.35,50.8 17.47,47.1 54.09,107.8 94.21,185.5 19.78,39 40.09,82.8 56.12,133.4 15.98,50.4 27.35,108 27.3,170.4 0.02,35.3 -3.61,72 -11.38,108.8 -11.69,55.8 -31.75,108.1 -57.94,154.7 -45.94,81.8 -109.02,144.5 -174.31,192.8 -98.5,72.3 -203.34,116.6 -298.72,154.2 -95.19,36.8 -182.5,66.8 -239,94.3 -64.13,30.8 -114.61,63.1 -153.96,95.3 -59.05,48.5 -93.51,95.5 -116.07,144.4 -22.25,49 -33.02,102 -33.16,164.8 -0.22,84 21.22,184.9 61.57,293.8 60.05,163.6 161.19,343.1 269.16,514.3 108.02,171.8 221.86,334.8 308.96,479.7 118.68,198 228.03,401.4 327.79,609.4 37.28,78.1 96.06,181.8 150.53,294 27.27,56.3 53.59,115.2 75.72,176.6 22.03,61.5 40.15,125.6 48.9,193.9 l 0.02,0.2 c 3.9,31.1 5.5,61.8 5.5,92.1 -0.45,122.7 -24.62,238.8 -47.67,346.8 -23.52,107.3 -46.57,206.9 -53.32,277.2 -19.4,192.9 -29.05,386.8 -29.05,580.8 0,26.4 0.18,52.9 0.54,79.3 17.16,1275 461.7,2526 1254.42,3524.7 774.54,976.2 1862.12,1690.9 3067.02,2007.9 481.95,126.8 979.39,189.9 1476.69,189.9 795.5,0 1590.5,-161.5 2321.2,-480 1137,-495.3 2102,-1361.1 2719.6,-2436.7 54.9,-95.6 176.8,-128.6 272.4,-73.7 95.6,54.9 128.6,176.9 73.7,272.4 v 0 c -661.1,1150.8 -1689.3,2073.3 -2906.3,2603.9 -782.5,341.1 -1631.2,513.2 -2480.6,513.2 -531.03,0 -1062.45,-67.3 -1578.29,-203.1 C 7503.97,18736.9 6344.92,17974.9 5516.16,16931 4668.03,15862 4193.96,14527.6 4175.29,13163.6 c -0.38,-28.2 -0.58,-56.4 -0.58,-84.7 0,-207.2 10.3,-414.4 31.05,-620.7 11.51,-111.3 38.46,-219.6 60.38,-321.8 22.37,-101.5 39.07,-196.6 38.62,-262.3 0,-16 -0.87,-30.2 -2.39,-42.2 -3.54,-28.6 -13.17,-66.5 -28.5,-108.9 -22.85,-63.8 -57.97,-137.2 -96.18,-211.2 -38.21,-74.3 -79.25,-148.8 -114.36,-221.9 -94.46,-196.9 -197.97,-389.5 -310.23,-576.7 -50.31,-84 -118.23,-185.8 -191.58,-297.5 -110.08,-168 -232.64,-358.2 -330.56,-559 -48.92,-100.5 -91.79,-203.8 -123.13,-309.9 -31.23,-106 -51.15,-215.1 -51.23,-326.7 -0.01,-73.7 8.89,-148.4 29.5,-221.9 30.64,-110.4 88.77,-217.1 173.44,-309 84.6,-92.2 193.92,-169.7 326.72,-233.4 68.77,-32.9 138.45,-57.9 205.34,-83.1 100.09,-37 193.41,-75.2 253.35,-116.4 30.16,-20.3 51.57,-40.3 65.69,-58.8 14.1,-18.9 22.29,-35.6 27.68,-60.1 2.03,-9.7 2.81,-18.1 2.83,-26.6 -0.05,-14.6 -2.42,-29.9 -8.76,-50.1 -9.27,-30.1 -28.9,-69.9 -55.55,-118.6 -26.28,-48.8 -59.28,-106.3 -86.82,-177.6 -24.9,-64.4 -37.99,-130.5 -37.85,-193.8 -0.09,-53.8 9.27,-104.3 22.9,-148.1 20.65,-66 48.78,-117.3 72.57,-161.3 24.17,-44 44.81,-81.1 60,-117.4 5.04,-12.7 6.08,-19.3 6.34,-32.2 0.34,-17.1 -5.09,-47.1 -16.47,-93 -10.59,-45.6 -27.15,-107.1 -27.51,-185.9 -0.26,-56.4 10.2,-121.3 36.72,-184.1 27.87,-66.8 63.07,-121.5 95.71,-166.8 49.57,-67.9 91.75,-116.8 114.25,-154.9 11.55,-19.1 18.86,-34.8 23.7,-50.1 4.75,-15.3 7.56,-30.6 7.65,-52.1 l -0.3,-11.7 c -1.77,-34.6 -8.23,-71.5 -18.72,-112.5 -15.53,-61.6 -40.76,-131.7 -64.77,-213.4 -23.67,-81.5 -46.02,-176 -46.1,-283.8 -0.01,-10.2 0.21,-20.9 0.68,-31.9 10.18,-234.8 95.23,-458.5 232.05,-642.4 82.76,-111.2 181.72,-202.3 289.97,-274.4 162.6,-108.5 344.66,-174.8 531.44,-214.6 187.01,-39.7 379.72,-53.3 569.34,-53.4 339.68,0.2 671.38,44 934.13,72.9 449.32,49.8 893.31,123.9 1330.59,230.8 37.68,-296 54.77,-597.6 54.76,-901.2 0.02,-533.3 -51.58,-1072.5 -130.31,-1596.2 -16.38,-109 58.7,-210.7 167.69,-227 109,-16.4 210.63,58.7 227.01,167.7 80.85,538.2 134.71,1096.5 134.72,1655.5 0,336.4 -19.74,673 -64.91,1005.6 263.33,77.5 523.99,168.2 781.63,274.4 399.22,164.6 785.77,359.7 1155.37,582.8 94.4,56.9 124.7,179.6 67.7,273.9 -56.9,94.4 -179.6,124.7 -273.9,67.8"
         style="fill:#f9a897;fill-opacity:1;fill-rule:nonzero;stroke:none"
         transform="matrix(0.13333333,0,0,-0.13333333,0,2829.3333)" />
      <path
         id="path10"
         d="m 8914.38,16636 c -3.09,27.9 -21.74,51.3 -48.22,60.6 l -679.48,238.6 c -37.93,13.3 -79.46,-6.6 -92.77,-44.6 -13.32,-37.9 6.63,-79.4 44.56,-92.7 h -0.01 l 536.62,-188.4 -473.24,-295.7 c -34.1,-21.3 -44.46,-66.2 -23.17,-100.3 21.3,-34.1 66.2,-44.4 100.29,-23.1 l 601.65,375.8 c 23.81,14.9 36.86,41.9 33.77,69.8"
         style="fill:#231f20;fill-opacity:1;fill-rule:nonzero;stroke:none"
         transform="matrix(0.13333333,0,0,-0.13333333,0,2829.3333)" />
      <path
         id="path11"
         d="m 10176.5,16730.4 676.4,-214 c 38.3,-12.1 79.2,9.1 91.4,47.4 12.1,38.3 -9.2,79.2 -47.5,91.4 l -532,168.3 472.7,316.2 c 33.4,22.4 42.4,67.6 20,101 -22.3,33.4 -67.5,42.4 -100.9,20 v 0 l -598.6,-400.4 c -23.3,-15.6 -35.5,-43 -31.5,-70.8 3.9,-27.8 23.3,-50.6 50,-59.1"
         style="fill:#231f20;fill-opacity:1;fill-rule:nonzero;stroke:none"
         transform="matrix(0.13333333,0,0,-0.13333333,0,2829.3333)" />
      <path
         id="path12"
         d="m 8945.43,15813.1 c -151.3,-139.5 -246.23,-323.3 -246.29,-520.7 0,-25.6 1.61,-51.4 4.88,-77.2 5.05,-39.9 41.47,-68.1 81.34,-63.1 39.87,5.1 68.11,41.5 63.06,81.4 h -0.01 c -2.5,19.7 -3.73,39.4 -3.73,58.9 -0.06,149.5 72,295.8 199.5,413.8 127.24,117.7 308.84,204.4 518.12,230.8 44.2,5.6 87.86,8.3 130.68,8.3 194.61,0.1 371.82,-56.1 502.62,-148.3 131.1,-92.6 215,-218.3 233.5,-363.3 5,-39.9 41.4,-68.1 81.3,-63.1 39.9,5.1 68.1,41.5 63.1,81.4 -24.2,191.1 -135.9,353 -294.1,464 -158.4,111.4 -364.04,174.8 -586.42,174.9 -48.94,0 -98.71,-3.1 -148.96,-9.5 -238,-30.2 -447.02,-128.4 -598.59,-268.3"
         style="fill:#231f20;fill-opacity:1;fill-rule:nonzero;stroke:none"
         transform="matrix(0.13333333,0,0,-0.13333333,0,2829.3333)" />
      <path
         id="path13"
         d="m 14850.2,12542.3 c 216.3,0.1 419,55 582.6,157.1 163.4,101.8 288.1,253.1 339.4,440.4 12.3,44.6 -13.9,90.6 -58.6,102.9 -44.5,12.3 -90.6,-13.9 -102.9,-58.5 v 0 c -39.3,-142.4 -133.1,-259 -266.7,-342.8 -133.3,-83.4 -305.9,-131.6 -493.8,-131.6 -100,0 -204.2,13.6 -309,42.4 -216.5,59.5 -397.7,173.8 -523.1,313.2 -125.7,139.6 -194.7,302.5 -194.6,461.2 0,48.1 6.3,96 19.3,143.5 12.3,44.6 -13.9,90.7 -58.5,103 -44.6,12.3 -90.7,-13.9 -102.9,-58.5 -17.2,-62.2 -25.4,-125.3 -25.4,-188 0.1,-207.7 89.4,-408.7 237.6,-573.3 148.5,-164.8 357,-294.8 603.2,-362.6 119.2,-32.7 238.3,-48.4 353.4,-48.4"
         style="fill:#231f20;fill-opacity:1;fill-rule:nonzero;stroke:none"
         transform="matrix(0.13333333,0,0,-0.13333333,0,2829.3333)" />
      <path
         id="path14"
         d="m 13753.7,14771.9 c 71.1,52 159.7,81.8 252.7,81.8 38.7,0 78.2,-5.1 117.8,-16 192.3,-52.8 317.4,-223.2 317.2,-403.1 0,-34.5 -4.6,-69.5 -14.2,-104.6 -12.2,-44.6 14,-90.6 58.6,-102.9 44.6,-12.2 90.7,14 103,58.6 13.5,49.5 20.1,99.6 20.1,148.9 -0.2,257.4 -176.5,491.9 -440.3,564.6 -54.1,14.9 -108.6,22 -162.2,22 -128.8,0 -251.7,-41.1 -351.7,-114.2 -99.8,-73 -176.9,-178.8 -211.9,-306.3 -12.2,-44.6 14,-90.7 58.6,-102.9 44.6,-12.3 90.7,13.9 102.9,58.5 v 0 c 24.7,89.8 78.2,163.4 149.4,215.6"
         style="fill:#231f20;fill-opacity:1;fill-rule:nonzero;stroke:none"
         transform="matrix(0.13333333,0,0,-0.13333333,0,2829.3333)" />
      <path
         id="path15"
         d="m 15386.8,13979.4 c 44.6,-12.2 90.7,14 102.9,58.6 v 0 c 24.7,89.8 78.2,163.4 149.4,215.6 71.1,52 159.7,81.8 252.7,81.8 38.7,0 78.2,-5.1 117.8,-16 192.3,-52.7 317.4,-223.2 317.2,-403 0,-34.6 -4.5,-69.6 -14.2,-104.6 -12.2,-44.6 14,-90.7 58.6,-103 44.6,-12.2 90.7,14 103,58.6 13.6,49.5 20.1,99.6 20.1,149 -0.2,257.3 -176.4,491.8 -440.3,564.5 -54.1,14.9 -108.6,22 -162.2,22 -128.8,0 -251.7,-41.1 -351.6,-114.2 -99.9,-73 -177,-178.8 -212,-306.3 -12.2,-44.6 14,-90.7 58.6,-103"
         style="fill:#231f20;fill-opacity:1;fill-rule:nonzero;stroke:none"
         transform="matrix(0.13333333,0,0,-0.13333333,0,2829.3333)" />
      <path
         id="path16"
         d="m 8899.31,11827.3 c 0,151.3 -122.68,274 -274.01,274 -151.33,0 -274.01,-122.7 -274.01,-274 0,-151.3 122.68,-274 274.01,-274 151.33,0 274.01,122.7 274.01,274"
         style="fill:#231f20;fill-opacity:1;fill-rule:nonzero;stroke:none"
         transform="matrix(0.13333333,0,0,-0.13333333,0,2829.3333)" />
      <path
         id="path17"
         d="m 10543.4,11553.3 c 151.3,0 274,122.7 274,274 0,151.3 -122.7,274 -274,274 -151.4,0 -274.1,-122.7 -274.1,-274 0,-151.3 122.7,-274 274.1,-274"
         style="fill:#231f20;fill-opacity:1;fill-rule:nonzero;stroke:none"
         transform="matrix(0.13333333,0,0,-0.13333333,0,2829.3333)" />
      <path
         id="path18"
         d="m 9572.39,10461.3 c 241.83,0 457.91,-100.2 603.81,-260.5 226.1,167.5 372.1,429.3 375,722.7 H 8593.63 c 4.3,-293.4 150.25,-555.2 374.92,-722.7 145.94,160.3 362.01,260.5 603.84,260.5"
         style="fill:#231f20;fill-opacity:1;fill-rule:nonzero;stroke:none"
         transform="matrix(0.13333333,0,0,-0.13333333,0,2829.3333)" />
      <path
         id="path19"
         d="m 8968.55,10200.8 c 167.41,-125.9 376.32,-200.3 603.84,-200.3 227.52,0 436.41,74.4 603.81,200.3 -145.9,160.3 -361.98,260.5 -603.81,260.5 -241.83,0 -457.9,-100.2 -603.84,-260.5"
         style="fill:#f03e51;fill-opacity:1;fill-rule:nonzero;stroke:none"
         transform="matrix(0.13333333,0,0,-0.13333333,0,2829.3333)" />
    </g>
  </g>
</svg>
